<?xml version="1.0" encoding="UTF-8" standalone="no"?>
<!DOCTYPE svg PUBLIC "-//W3C//DTD SVG 1.1//EN" "http://www.w3.org/Graphics/SVG/1.1/DTD/svg11.dtd">
<svg width="712px" height="712px" version="1.1" xmlns="http://www.w3.org/2000/svg" xmlns:xlink="http://www.w3.org/1999/xlink" xml:space="preserve" xmlns:serif="http://www.serif.com/" style="fill-rule:evenodd;clip-rule:evenodd;stroke-linecap:round;stroke-linejoin:round;">
    <g transform="matrix(1.388889,0,0,1.388889,0,0)">
        <g>
            <path d="M70,148C70,155.727 63.727,162 56,162C48.273,162 42,155.727 42,148L42,56C42,48.268 48.268,42 56,42L148,42C155.727,42 162,48.273 162,56C162,63.727 155.727,70 148,70L70,70L70,148Z"/>
            <path d="M364,70C356.273,70 350,63.727 350,56C350,48.273 356.273,42 364,42L456,42C463.732,42 470,48.268 470,56L470,148C470,155.727 463.727,162 456,162C448.273,162 442,155.727 442,148L442,70L364,70Z"/>
            <path d="M442,364C442,356.273 448.273,350 456,350C463.727,350 470,356.273 470,364L470,456C470,463.732 463.732,470 456,470L364,470C356.273,470 350,463.727 350,456C350,448.273 356.273,442 364,442L442,442L442,364Z"/>
            <path d="M148,442C155.727,442 162,448.273 162,456C162,463.727 155.727,470 148,470L56,470C48.268,470 42,463.732 42,456L42,364C42,356.273 48.273,350 56,350C63.727,350 70,356.273 70,364L70,442L148,442Z"/>
        </g>
        <path d="M384,166L384,346C384,359.246 373.246,370 360,370L152,370C138.754,370 128,359.246 128,346L128,166C128,152.754 138.754,142 152,142L360,142C373.246,142 384,152.754 384,166Z" style="fill:none;stroke:black;stroke-width:26px;"/>
        <g>
            <circle cx="160" cy="174" r="12"/>
            <circle cx="190" cy="174" r="12"/>
            <circle cx="220" cy="174" r="12"/>
        </g>
        <g>
            <path d="M214,240L282,240L214,308L214,240Z" style="fill-rule:nonzero;"/>
            <path d="M298,256L298,324L230,324L298,256Z" style="fill-rule:nonzero;"/>
        </g>
    </g>
</svg>
